<?xml version="1.0" encoding="UTF-8" standalone="no"?>
<!-- Generator: Adobe Illustrator 19.0.0, SVG Export Plug-In . SVG Version: 6.00 Build 0)  -->

<svg
   xmlns:dc="http://purl.org/dc/elements/1.1/"
   xmlns:cc="http://creativecommons.org/ns#"
   xmlns:rdf="http://www.w3.org/1999/02/22-rdf-syntax-ns#"
   xmlns:svg="http://www.w3.org/2000/svg"
   xmlns="http://www.w3.org/2000/svg"
   xmlns:sodipodi="http://sodipodi.sourceforge.net/DTD/sodipodi-0.dtd"
   xmlns:inkscape="http://www.inkscape.org/namespaces/inkscape"
   version="1.1"
   id="Capa_1"
   x="0px"
   y="0px"
   viewBox="0 0 512.138 512.138"
   style="enable-background:new 0 0 512.138 512.138;"
   xml:space="preserve"
   sodipodi:docname="subscript.svg"
   inkscape:version="0.92.3 (2405546, 2018-03-11)"><metadata
   id="metadata51"><rdf:RDF><cc:Work
       rdf:about=""><dc:format>image/svg+xml</dc:format><dc:type
         rdf:resource="http://purl.org/dc/dcmitype/StillImage" /></cc:Work></rdf:RDF></metadata><defs
   id="defs49" /><sodipodi:namedview
   pagecolor="#ffffff"
   bordercolor="#666666"
   borderopacity="1"
   objecttolerance="10"
   gridtolerance="10"
   guidetolerance="10"
   inkscape:pageopacity="0"
   inkscape:pageshadow="2"
   inkscape:window-width="1366"
   inkscape:window-height="705"
   id="namedview47"
   showgrid="false"
   inkscape:zoom="0.4608133"
   inkscape:cx="-260.3503"
   inkscape:cy="225.06984"
   inkscape:window-x="-8"
   inkscape:window-y="-8"
   inkscape:window-maximized="1"
   inkscape:current-layer="Capa_1" />
<path
   style="fill:#000000;fill-opacity:1"
   d="M458.74,512.138H352.073c-5.891,0.01-10.675-4.757-10.686-10.648  c-0.005-2.84,1.123-5.565,3.134-7.571l84.032-84.053c12.447-12.506,19.461-29.416,19.52-47.061  c0-23.564-19.102-42.667-42.667-42.667s-42.667,19.103-42.667,42.667v10.667c0,5.891-4.776,10.667-10.667,10.667  c-5.891,0-10.667-4.776-10.667-10.667v-10.667c0-35.346,28.654-64,64-64s64,28.654,64,64c0.066,23.33-9.206,45.716-25.749,62.165  l-65.835,65.835h80.917c5.891,0,10.667,4.776,10.667,10.667C469.406,507.363,464.631,512.138,458.74,512.138z"
   id="path2" />
<g
   id="g8">
	<path
   style="fill:#000000;fill-opacity:1"
   d="M53.406,426.805c-2.016,0.002-3.991-0.568-5.696-1.643c-4.983-3.142-6.475-9.729-3.333-14.712   c0.002-0.003,0.003-0.005,0.005-0.008l256-405.333c3.146-4.984,9.736-6.474,14.72-3.328s6.474,9.736,3.328,14.72l0,0l-256,405.333   C60.475,424.93,57.068,426.807,53.406,426.805z"
   id="path4" />
	<path
   style="fill:#000000;fill-opacity:1"
   d="M309.406,426.805c-3.662,0.002-7.069-1.875-9.024-4.971l-256-405.333   c-3.146-4.984-1.656-11.574,3.328-14.72s11.574-1.656,14.72,3.328l256,405.333c3.147,4.98,1.66,11.568-3.32,14.715   c-0.003,0.002-0.005,0.003-0.008,0.005C313.397,426.237,311.422,426.807,309.406,426.805z"
   id="path6" />
</g>
<path
   style="color:#000000;font-style:normal;font-variant:normal;font-weight:normal;font-stretch:normal;font-size:medium;line-height:normal;font-family:sans-serif;font-variant-ligatures:normal;font-variant-position:normal;font-variant-caps:normal;font-variant-numeric:normal;font-variant-alternates:normal;font-feature-settings:normal;text-indent:0;text-align:start;text-decoration:none;text-decoration-line:none;text-decoration-style:solid;text-decoration-color:#000000;letter-spacing:normal;word-spacing:normal;text-transform:none;writing-mode:lr-tb;direction:ltr;text-orientation:mixed;dominant-baseline:auto;baseline-shift:baseline;text-anchor:start;white-space:normal;shape-padding:0;clip-rule:nonzero;display:inline;overflow:visible;visibility:visible;opacity:1;isolation:auto;mix-blend-mode:normal;color-interpolation:sRGB;color-interpolation-filters:linearRGB;solid-color:#000000;solid-opacity:1;vector-effect:none;fill-opacity:1;fill-rule:nonzero;stroke:none;stroke-width:1;stroke-linecap:butt;stroke-linejoin:miter;stroke-miterlimit:4;stroke-dasharray:none;stroke-dashoffset:0;stroke-opacity:1;color-rendering:auto;image-rendering:auto;shape-rendering:auto;text-rendering:auto;enable-background:accumulate"
   d="m 405.4043,298.30469 c -35.61623,0 -64.5,28.88377 -64.5,64.5 v 10.66601 c 0,6.16125 5.00672,11.16797 11.16797,11.16797 6.16124,0 11.16601,-5.00672 11.16601,-11.16797 v -10.66601 c 0,-23.29379 18.87319,-42.16797 42.16797,-42.16797 23.29478,0 42.16602,18.87418 42.16602,42.16797 0.0447,17.5386 -6.92974,34.36655 -19.3711,46.72851 h -0.002 l -84.03125,84.03321 c -2.10437,2.09976 -3.28648,4.95142 -3.28125,7.92382 0.0115,6.16053 5.02527,11.15782 11.18555,11.14844 h 106.66796 c 6.16119,0 11.16511,-5.00578 11.16407,-11.16797 0,-6.16124 -5.00478,-11.16601 -11.16602,-11.16601 h -79.71094 l 64.98047,-64.98047 0.002,-0.002 c 16.63995,-16.54044 25.9654,-39.05476 25.89453,-62.51758 0,-35.61623 -28.88378,-64.5 -64.5,-64.5 z m 0,1 c 35.07577,0 63.5,28.42422 63.5,63.5 0.0706,23.19754 -9.14922,45.45763 -25.60157,61.81054 l -66.68945,66.68946 h 82.125 c 5.62076,0 10.16602,4.54526 10.16602,10.16601 9.5e-4,5.62182 -4.54325,10.16797 -10.16407,10.16797 H 352.07227 c -5.62081,0.01 -10.17506,-4.52958 -10.18555,-10.15039 -0.005,-2.70704 1.07138,-5.30271 2.98828,-7.21484 l 84.03125,-84.03125 v -0.002 c 12.62953,-12.54947 19.71083,-29.63134 19.66602,-47.43554 0,-23.83422 -19.3308,-43.16797 -43.16602,-43.16797 -23.83522,0 -43.16797,19.33375 -43.16797,43.16797 v 10.66601 c 0,5.62076 -4.54526,10.16797 -10.16601,10.16797 -5.62076,0 -10.16797,-4.54721 -10.16797,-10.16797 v -10.66601 c 0,-35.07578 28.42422,-63.5 63.5,-63.5 z"
   id="path10"
   inkscape:connector-curvature="0" />
<path
   style="color:#000000;font-style:normal;font-variant:normal;font-weight:normal;font-stretch:normal;font-size:medium;line-height:normal;font-family:sans-serif;font-variant-ligatures:normal;font-variant-position:normal;font-variant-caps:normal;font-variant-numeric:normal;font-variant-alternates:normal;font-feature-settings:normal;text-indent:0;text-align:start;text-decoration:none;text-decoration-line:none;text-decoration-style:solid;text-decoration-color:#000000;letter-spacing:normal;word-spacing:normal;text-transform:none;writing-mode:lr-tb;direction:ltr;text-orientation:mixed;dominant-baseline:auto;baseline-shift:baseline;text-anchor:start;white-space:normal;shape-padding:0;clip-rule:nonzero;display:inline;overflow:visible;visibility:visible;opacity:1;isolation:auto;mix-blend-mode:normal;color-interpolation:sRGB;color-interpolation-filters:linearRGB;solid-color:#000000;solid-opacity:1;vector-effect:none;fill-opacity:1;fill-rule:nonzero;stroke:none;stroke-width:1;stroke-linecap:butt;stroke-linejoin:miter;stroke-miterlimit:4;stroke-dasharray:none;stroke-dashoffset:0;stroke-opacity:1;color-rendering:auto;image-rendering:auto;shape-rendering:auto;text-rendering:auto;enable-background:accumulate;fill:#000000"
   d="m 311.16211,-0.375 c -4.30199,-0.6403496 -8.77262,1.2789413 -11.18164,5.21875 L 43.980469,410.17578 c -1.124371,1.77973 -1.721469,3.84211 -1.72461,5.94727 -0.0094,6.16126 4.987269,11.17222 11.148438,11.18164 h 0.002 c 3.845534,0.005 7.423499,-1.96938 9.46875,-5.22461 h -0.002 L 318.86914,16.753906 l 0.004,-0.0059 c 0.0552,-0.08499 0.11088,-0.170892 0.16406,-0.257813 3.21186,-5.258616 1.54771,-12.1407339 -3.71094,-15.3515621 -1.31465,-0.802964 -2.72931,-1.30011037 -4.16406,-1.5136719 z m -0.15234,0.984375 c 1.30625,0.19546972 2.59557,0.6502765 3.79492,1.3828125 4.79735,2.9291717 6.30905,9.1791795 3.3789,13.9765625 -0.0496,0.08108 -0.10088,0.161138 -0.15234,0.240234 l -0.002,0.002 L 62.027344,421.54688 v 0.002 c -1.86275,2.96476 -5.118628,4.76062 -8.621094,4.75586 -5.620831,-0.009 -10.158978,-4.5609 -10.150391,-10.18164 0.0029,-1.91684 0.546684,-3.79184 1.570313,-5.41211 L 300.82812,5.3730469 l 0.002,-0.00195 c 2.19688,-3.5980152 6.26093,-5.34812796 10.17969,-4.7617188 z"
   id="path12"
   inkscape:connector-curvature="0" />
<path
   style="color:#000000;font-style:normal;font-variant:normal;font-weight:normal;font-stretch:normal;font-size:medium;line-height:normal;font-family:sans-serif;font-variant-ligatures:normal;font-variant-position:normal;font-variant-caps:normal;font-variant-numeric:normal;font-variant-alternates:normal;font-feature-settings:normal;text-indent:0;text-align:start;text-decoration:none;text-decoration-line:none;text-decoration-style:solid;text-decoration-color:#000000;letter-spacing:normal;word-spacing:normal;text-transform:none;writing-mode:lr-tb;direction:ltr;text-orientation:mixed;dominant-baseline:auto;baseline-shift:baseline;text-anchor:start;white-space:normal;shape-padding:0;clip-rule:nonzero;display:inline;overflow:visible;visibility:visible;opacity:1;isolation:auto;mix-blend-mode:normal;color-interpolation:sRGB;color-interpolation-filters:linearRGB;solid-color:#000000;solid-opacity:1;vector-effect:none;fill-opacity:1;fill-rule:nonzero;stroke:none;stroke-width:1;stroke-linecap:butt;stroke-linejoin:miter;stroke-miterlimit:4;stroke-dasharray:none;stroke-dashoffset:0;stroke-opacity:1;color-rendering:auto;image-rendering:auto;shape-rendering:auto;text-rendering:auto;enable-background:accumulate"
   d="M 51.587891,-0.21875 C 50.155944,0.01608623 48.746481,0.53486528 47.443359,1.3574219 42.230881,4.6476417 40.668758,11.55509 43.958984,16.767578 L 299.95898,422.10156 c 2.04631,3.2406 5.61425,5.20522 9.44727,5.20313 2.11248,0.001 4.18178,-0.59611 5.96875,-1.72461 5.20844,-3.29032 6.76882,-10.19482 3.47852,-15.4043 L 62.853516,4.8417969 C 60.385851,0.93243842 55.88373,-0.92325869 51.587891,-0.21875 Z m 0.166015,0.98242188 C 55.665129,0.11911807 59.756477,1.8083585 62.007812,5.375 L 318.00781,410.70898 c 3.0017,4.75253 1.58554,11.02371 -3.16601,14.0254 -1.62703,1.02749 -3.51203,1.57126 -5.43555,1.57031 -3.49098,0.002 -6.73787,-1.78688 -8.60156,-4.73828 L 44.804688,16.234375 C 41.802914,11.478863 43.22104,5.2049052 47.976562,2.203125 49.16544,1.4526816 50.450165,0.97852314 51.753906,0.76367188 Z"
   id="path14"
   inkscape:connector-curvature="0" />
<g
   id="g16">
</g>
<g
   id="g18">
</g>
<g
   id="g20">
</g>
<g
   id="g22">
</g>
<g
   id="g24">
</g>
<g
   id="g26">
</g>
<g
   id="g28">
</g>
<g
   id="g30">
</g>
<g
   id="g32">
</g>
<g
   id="g34">
</g>
<g
   id="g36">
</g>
<g
   id="g38">
</g>
<g
   id="g40">
</g>
<g
   id="g42">
</g>
<g
   id="g44">
</g>
</svg>