<?xml version="1.0" encoding="UTF-8" standalone="no"?>
<!-- Generator: Adobe Illustrator 19.0.0, SVG Export Plug-In . SVG Version: 6.00 Build 0)  -->

<svg
   xmlns:dc="http://purl.org/dc/elements/1.1/"
   xmlns:cc="http://creativecommons.org/ns#"
   xmlns:rdf="http://www.w3.org/1999/02/22-rdf-syntax-ns#"
   xmlns:svg="http://www.w3.org/2000/svg"
   xmlns="http://www.w3.org/2000/svg"
   xmlns:sodipodi="http://sodipodi.sourceforge.net/DTD/sodipodi-0.dtd"
   xmlns:inkscape="http://www.inkscape.org/namespaces/inkscape"
   version="1.1"
   id="Capa_1"
   x="0px"
   y="0px"
   viewBox="0 0 512 512"
   style="enable-background:new 0 0 512 512;"
   xml:space="preserve"
   sodipodi:docname="superscript.svg"
   inkscape:version="0.92.3 (2405546, 2018-03-11)"><metadata
   id="metadata51"><rdf:RDF><cc:Work
       rdf:about=""><dc:format>image/svg+xml</dc:format><dc:type
         rdf:resource="http://purl.org/dc/dcmitype/StillImage" /></cc:Work></rdf:RDF></metadata><defs
   id="defs49" /><sodipodi:namedview
   pagecolor="#ffffff"
   bordercolor="#666666"
   borderopacity="1"
   objecttolerance="10"
   gridtolerance="10"
   guidetolerance="10"
   inkscape:pageopacity="0"
   inkscape:pageshadow="2"
   inkscape:window-width="1366"
   inkscape:window-height="705"
   id="namedview47"
   showgrid="false"
   inkscape:zoom="2.6074563"
   inkscape:cx="370.94613"
   inkscape:cy="421.82514"
   inkscape:window-x="-8"
   inkscape:window-y="-8"
   inkscape:window-maximized="1"
   inkscape:current-layer="Capa_1" />

<g
   id="g8"
   style="fill:#000000;fill-opacity:1">
	<path
   style="fill:#000000;fill-opacity:1"
   d="M53.373,512c-5.891-0.009-10.66-4.791-10.651-10.682c0.003-2.011,0.574-3.98,1.648-5.68l256-405.333   c3.146-4.984,9.736-6.474,14.72-3.328c4.984,3.146,6.474,9.736,3.328,14.72l-256,405.333C60.459,510.132,57.043,512.009,53.373,512   z"
   id="path4" />
	<path
   style="fill:#000000;fill-opacity:1"
   d="M309.374,512c-3.662,0.002-7.069-1.875-9.024-4.971l-256-405.333   c-3.146-4.984-1.656-11.574,3.328-14.72s11.574-1.656,14.72,3.328l256,405.333c3.146,4.981,1.658,11.569-3.323,14.715   C313.369,511.43,311.392,512.001,309.374,512z"
   id="path6" />
</g>
<path
   id="path10"
   style="color:#000000;font-style:normal;font-variant:normal;font-weight:normal;font-stretch:normal;font-size:medium;line-height:normal;font-family:sans-serif;font-variant-ligatures:normal;font-variant-position:normal;font-variant-caps:normal;font-variant-numeric:normal;font-variant-alternates:normal;font-feature-settings:normal;text-indent:0;text-align:start;text-decoration:none;text-decoration-line:none;text-decoration-style:solid;text-decoration-color:#000000;letter-spacing:normal;word-spacing:normal;text-transform:none;writing-mode:lr-tb;direction:ltr;text-orientation:mixed;dominant-baseline:auto;baseline-shift:baseline;text-anchor:start;white-space:normal;shape-padding:0;clip-rule:nonzero;display:inline;overflow:visible;visibility:visible;opacity:1;isolation:auto;mix-blend-mode:normal;color-interpolation:sRGB;color-interpolation-filters:linearRGB;solid-color:#000000;solid-opacity:1;vector-effect:none;fill:#000000;fill-opacity:1;fill-rule:nonzero;stroke:none;stroke-width:1;stroke-linecap:butt;stroke-linejoin:miter;stroke-miterlimit:4;stroke-dasharray:none;stroke-dashoffset:0;stroke-opacity:1;color-rendering:auto;image-rendering:auto;shape-rendering:auto;text-rendering:auto;enable-background:accumulate"
   d="m 405.37109,-0.5 c -35.61622,0 -64.5,28.883776 -64.5,64.5 v 10.667969 c 0,6.161242 5.00673,11.166015 11.16797,11.166015 6.16125,0 11.16602,-5.004773 11.16602,-11.166015 V 64 c 0,-23.293771 18.8742,-42.167969 42.16797,-42.167969 23.29377,0 42.16601,18.874198 42.16601,42.167969 v 0.002 c 0.0447,17.538604 -6.92975,34.363654 -19.37109,46.72461 v 0.002 l -84.0332,84.03125 c -2.10511,2.09987 -3.28649,4.95282 -3.28125,7.92578 0.0115,6.16052 5.02516,11.1569 11.18554,11.14648 h 106.66797 c 6.16119,0 11.16602,-5.00282 11.16602,-11.16406 0,-6.16124 -5.00478,-11.16797 -11.16602,-11.16797 h -79.70898 l 64.97656,-64.98047 0.002,-0.002 C 460.61647,109.9771 469.94197,87.462825 469.87109,64 c 0,-35.616224 -28.88377,-64.5 -64.5,-64.5 z m -0.47939,9.437342 c 35.07578,0 55.03024,55.605031 55.03024,55.605031 l -1.35593,5.425729 c -8.065,23.46873 -5.21506,34.201438 -21.66741,50.554358 l 2.00835,0.40452 -90.72454,91.06087 111.48341,-3.3802 c 5.61818,-0.17034 3.25011,-11.27861 3.25011,-5.65785 0,5.62076 -4.72491,2.70607 -4.01714,5.4718 l -106.28446,1.53406 c -5.6207,0.0105 13.6988,-2.32241 13.68831,-7.94322 -0.005,-2.70704 -22.16787,-7.25258 -21.46084,-6.54369 l 13.80656,6.70952 84.03125,-84.0293 -3.77266,2.77801 c 12.62954,-12.5483 22.42269,-43.190572 22.37787,-60.994777 0,-23.834229 -37.26298,-53.3504031 -61.09721,-53.3504031 -23.83423,0 -45.42364,33.2497011 -48.04981,56.9388061 l -1.24643,11.243242 c -0.61932,5.586533 5.71378,0.0029 0.093,0.0029 -5.62075,0 -2.35373,5.391196 -0.005,0.284784 l 18.88814,-41.061576 c 0,0 -0.0518,-25.052567 35.02398,-25.052567 z"
   inkscape:connector-curvature="0"
   sodipodi:nodetypes="ssssssssccccccsssccccscsccccssccccccccssssscsc" />
<path
   style="color:#000000;font-style:normal;font-variant:normal;font-weight:normal;font-stretch:normal;font-size:medium;line-height:normal;font-family:sans-serif;font-variant-ligatures:normal;font-variant-position:normal;font-variant-caps:normal;font-variant-numeric:normal;font-variant-alternates:normal;font-feature-settings:normal;text-indent:0;text-align:start;text-decoration:none;text-decoration-line:none;text-decoration-style:solid;text-decoration-color:#000000;letter-spacing:normal;word-spacing:normal;text-transform:none;writing-mode:lr-tb;direction:ltr;text-orientation:mixed;dominant-baseline:auto;baseline-shift:baseline;text-anchor:start;white-space:normal;shape-padding:0;clip-rule:nonzero;display:inline;overflow:visible;visibility:visible;opacity:1;isolation:auto;mix-blend-mode:normal;color-interpolation:sRGB;color-interpolation-filters:linearRGB;solid-color:#000000;solid-opacity:1;vector-effect:none;fill-opacity:1;fill-rule:nonzero;stroke:none;stroke-width:1;stroke-linecap:butt;stroke-linejoin:miter;stroke-miterlimit:4;stroke-dasharray:none;stroke-dashoffset:0;stroke-opacity:1;color-rendering:auto;image-rendering:auto;shape-rendering:auto;text-rendering:auto;enable-background:accumulate;fill:#000000"
   d="m 311.12891,84.820312 c -4.30425,-0.640684 -8.77743,1.280625 -11.18555,5.22461 L 43.947266,495.37109 c -1.124371,1.77973 -1.721469,3.84016 -1.72461,5.94532 -0.0094,6.16126 4.989222,11.17418 11.150391,11.18359 3.845534,0.005 7.423499,-1.96937 9.46875,-5.22461 h -0.002 l 255.999996,-405.33203 -0.002,0.006 c 0.0565,-0.0869 0.11162,-0.17475 0.16602,-0.26367 3.21185,-5.25862 1.54771,-12.140737 -3.71094,-15.351566 -1.31466,-0.802964 -2.72932,-1.30011 -4.16406,-1.513672 z m -0.15235,0.984376 c 1.30625,0.195469 2.59558,0.650276 3.79492,1.382812 4.79736,2.929172 6.30905,9.179179 3.37891,13.97656 -0.0493,0.0806 -0.10118,0.1616 -0.15234,0.24024 l -0.002,0.002 -256.001949,405.33594 c -1.86275,2.96476 -5.118628,4.76258 -8.621094,4.75781 -5.620831,-0.009 -10.158978,-4.5609 -10.150391,-10.18164 0.0029,-1.91684 0.546684,-3.79379 1.570313,-5.41406 L 300.79492,90.568359 l 0.002,-0.002 c 2.19687,-3.598015 6.26093,-5.348128 10.17968,-4.761718 z"
   id="path12"
   inkscape:connector-curvature="0" />
<path
   style="color:#000000;font-style:normal;font-variant:normal;font-weight:normal;font-stretch:normal;font-size:medium;line-height:normal;font-family:sans-serif;font-variant-ligatures:normal;font-variant-position:normal;font-variant-caps:normal;font-variant-numeric:normal;font-variant-alternates:normal;font-feature-settings:normal;text-indent:0;text-align:start;text-decoration:none;text-decoration-line:none;text-decoration-style:solid;text-decoration-color:#000000;letter-spacing:normal;word-spacing:normal;text-transform:none;writing-mode:lr-tb;direction:ltr;text-orientation:mixed;dominant-baseline:auto;baseline-shift:baseline;text-anchor:start;white-space:normal;shape-padding:0;clip-rule:nonzero;display:inline;overflow:visible;visibility:visible;opacity:1;isolation:auto;mix-blend-mode:normal;color-interpolation:sRGB;color-interpolation-filters:linearRGB;solid-color:#000000;solid-opacity:1;vector-effect:none;fill-opacity:1;fill-rule:nonzero;stroke:none;stroke-width:1;stroke-linecap:butt;stroke-linejoin:miter;stroke-miterlimit:4;stroke-dasharray:none;stroke-dashoffset:0;stroke-opacity:1;color-rendering:auto;image-rendering:auto;shape-rendering:auto;text-rendering:auto;enable-background:accumulate;fill:#000000"
   d="m 51.332031,84.890625 c -1.428123,0.253522 -2.829447,0.791551 -4.121093,1.630859 -5.166536,3.357203 -6.636532,10.280681 -3.279297,15.447266 L 299.92773,507.29688 c 2.04631,3.24059 5.61425,5.20521 9.44727,5.20312 2.09815,-0.001 4.15323,-0.59407 5.93164,-1.71094 5.21684,-3.27778 6.7934,-10.17965 3.51563,-15.39648 l -0.002,-0.002 -255.996091,-405.326167 -0.0039,-0.0059 c -0.05322,-0.08687 -0.106846,-0.172872 -0.162109,-0.257813 -2.517902,-3.874902 -7.041801,-5.670723 -11.326172,-4.910156 z m 0.179688,0.980469 c 3.900566,-0.695558 8.011495,0.939511 10.308593,4.474609 0.05146,0.0791 0.100791,0.159158 0.150391,0.240235 l 0.002,0.0039 256.001954,405.335936 c 2.98889,4.75898 1.55941,11.02574 -3.19922,14.01563 -1.61959,1.01713 -3.49249,1.55764 -5.40234,1.55859 -3.49098,0.002 -6.73592,-1.78688 -8.59961,-4.73828 L 44.771484,101.42578 l -0.002,-0.002 c -3.062766,-4.713417 -1.727136,-11.001657 2.986328,-14.064455 1.178354,-0.765691 2.455671,-1.256429 3.75586,-1.488281 z"
   id="path14"
   inkscape:connector-curvature="0" />
<g
   id="g16"
   style="fill:#000000;fill-opacity:1">
</g>
<g
   id="g18"
   style="fill:#000000;fill-opacity:1">
</g>
<g
   id="g20"
   style="fill:#000000;fill-opacity:1">
</g>
<g
   id="g22"
   style="fill:#000000;fill-opacity:1">
</g>
<g
   id="g24"
   style="fill:#000000;fill-opacity:1">
</g>
<g
   id="g26"
   style="fill:#000000;fill-opacity:1">
</g>
<g
   id="g28"
   style="fill:#000000;fill-opacity:1">
</g>
<g
   id="g30"
   style="fill:#000000;fill-opacity:1">
</g>
<g
   id="g32"
   style="fill:#000000;fill-opacity:1">
</g>
<g
   id="g34"
   style="fill:#000000;fill-opacity:1">
</g>
<g
   id="g36"
   style="fill:#000000;fill-opacity:1">
</g>
<g
   id="g38"
   style="fill:#000000;fill-opacity:1">
</g>
<g
   id="g40"
   style="fill:#000000;fill-opacity:1">
</g>
<g
   id="g42"
   style="fill:#000000;fill-opacity:1">
</g>
<g
   id="g44"
   style="fill:#000000;fill-opacity:1">
</g>
</svg>