<?xml version="1.0" encoding="iso-8859-1"?>
<!-- Generator: Adobe Illustrator 19.0.0, SVG Export Plug-In . SVG Version: 6.00 Build 0)  -->
<svg version="1.1" id="Capa_1" xmlns="http://www.w3.org/2000/svg" xmlns:xlink="http://www.w3.org/1999/xlink" x="0px" y="0px"
	 viewBox="0 0 512.001 512.001" style="enable-background:new 0 0 512.001 512.001;" xml:space="preserve">
<g>
	<g>
		<g>
			<path d="M492,352.053c11.046,0,20-8.954,20-20V80c0-44.112-35.888-80-80-80L80,0.001c-44.112,0-80,35.888-80,80v352
				c0,44.112,35.888,80,80,80L432,512c44.112,0,80-35.888,80-80c0-11.046-8.954-20-20-20c-11.046,0-20,8.954-20,20
				c0,22.056-17.944,40-40,40l-352,0.001c-22.056,0-40-17.944-40-40v-352c0-22.056,17.944-40,40-40L432,40c22.056,0,40,17.944,40,40
				v252.053C472,343.099,480.955,352.053,492,352.053z"/>
			<path d="M411,160l-311,0.001c-11.046,0-20,8.954-20,20c0,11.046,8.955,20,20,20L411,200c11.046,0,20-8.954,20-20
				S422.046,160,411,160z"/>
			<path d="M411,240l-187,0.001c-11.046,0-20,8.954-20,20c0,11.046,8.955,20,20,20L411,280c11.046,0,20-8.954,20-20
				C431,248.954,422.046,240,411,240z"/>
			<path d="M411,80l-227,0.001c-11.046,0-20,8.954-20,20c0,11.046,8.955,20,20,20L411,120c11.046,0,20-8.954,20-20
				S422.046,80,411,80z"/>
		</g>
	</g>
</g>
<g>
</g>
<g>
</g>
<g>
</g>
<g>
</g>
<g>
</g>
<g>
</g>
<g>
</g>
<g>
</g>
<g>
</g>
<g>
</g>
<g>
</g>
<g>
</g>
<g>
</g>
<g>
</g>
<g>
</g>
</svg>
