<?xml version="1.0" standalone="no"?>
<!DOCTYPE svg PUBLIC "-//W3C//DTD SVG 1.1//EN" "http://www.w3.org/Graphics/SVG/1.1/DTD/svg11.dtd" >
<svg xmlns="http://www.w3.org/2000/svg">
<metadata>
<json>
<![CDATA[
{
	"fontFamily": "icomoon",
	"majorVersion": 1,
	"minorVersion": 0,
	"version": "Version 1.0",
	"fontId": "icomoon",
	"psName": "icomoon",
	"subFamily": "Regular",
	"fullName": "icomoon",
	"description": "Font generated by IcoMoon."
}
]]>
</json>
</metadata>
<defs>
<font id="icomoon" horiz-adv-x="1024">
<font-face units-per-em="1024" ascent="960" descent="-64" />
<missing-glyph horiz-adv-x="1024" />
<glyph unicode="&#x20;" horiz-adv-x="512" d="" />
<glyph unicode="&#xe900;" glyph-name="redo" data-tags="redo" d="M303.922 625.95c-97.558 0-173.895-35.063-224.947-88.419s-76.935-123.902-78.895-194.138c-1.96-70.236 19.915-140.851 66.336-194.592s117.869-89.391 208.749-89.391h393.708c0.001 0 0.002 0 0.004 0 14.14 0 25.604 11.463 25.604 25.604s-11.463 25.604-25.604 25.604c-0.001 0-0.003 0-0.004 0h-393.708c-77.848 0-132.959 28.764-170.003 71.649s-55.542 101.103-53.907 159.701c1.635 58.598 23.315 116.896 64.716 160.166s102.4 72.621 187.951 72.621h694.159c0.14-0.003 0.306-0.004 0.472-0.004 14.14 0 25.603 11.463 25.603 25.603s-11.463 25.603-25.603 25.603c-0.166 0-0.331-0.002-0.496-0.005h-193.865zM997.864 626.198c-6.925-0.131-13.158-2.991-17.687-7.547l-0.001-0.001-215.012-210.379c-4.889-4.671-7.928-11.242-7.928-18.523 0-14.14 11.463-25.603 25.603-25.603 7.085 0 13.497 2.878 18.133 7.528l0.001 0.001 215.012 210.379c4.904 4.673 7.953 11.254 7.953 18.547 0 14.14-11.463 25.603-25.603 25.603-0.165 0-0.331-0.002-0.495-0.005h0.025zM782.518 836.589c-14.016-0.163-25.315-11.562-25.315-25.601 0-7.297 3.053-13.881 7.951-18.545l0.011-0.010 215.012-210.379c4.636-4.651 11.049-7.529 18.134-7.529 14.14 0 25.603 11.463 25.603 25.603 0 7.281-3.039 13.852-7.918 18.514l-0.010 0.009-215.012 210.379c-4.639 4.67-11.065 7.561-18.165 7.561-0.102 0-0.203-0.001-0.305-0.002h0.015z" />
<glyph unicode="&#xe901;" glyph-name="undo" data-tags="undo" d="M25.92 625.953c-0.14 0.003-0.306 0.004-0.472 0.004-14.14 0-25.603-11.463-25.603-25.603s11.463-25.603 25.603-25.603c0.166 0 0.331 0.002 0.496 0.005h694.134c85.55 0 146.55-29.351 187.951-72.621s63.081-101.568 64.716-160.166c1.635-58.598-16.863-116.816-53.907-159.701s-92.155-71.649-170.003-71.649h-393.708c-14.14 0-25.604-11.463-25.604-25.604s11.463-25.604 25.604-25.604v0h393.708c90.88 0 162.328 35.651 208.749 89.391s68.296 124.355 66.336 194.592c-1.96 70.236-27.843 140.771-78.895 194.127s-127.389 88.43-224.947 88.43h-500.269zM25.369 626.201c-14.011-0.169-25.304-11.566-25.304-25.601 0-7.292 3.048-13.871 7.94-18.534l0.010-0.010 215.012-210.379c4.652-4.749 11.13-7.694 18.296-7.694 14.14 0 25.603 11.463 25.603 25.603 0 7.36-3.105 13.994-8.077 18.664l-0.014 0.013-215.012 210.39c-4.638 4.664-11.059 7.55-18.155 7.55-0.106 0-0.211-0.001-0.316-0.002h0.016zM240.716 836.581c-6.925-0.131-13.158-2.991-17.687-7.547l-0.001-0.001-215.012-210.379c-4.889-4.671-7.928-11.242-7.928-18.523 0-14.14 11.463-25.603 25.603-25.603 7.085 0 13.497 2.878 18.133 7.528l0.001 0.001 215.012 210.379c4.904 4.673 7.953 11.254 7.953 18.547 0 14.14-11.463 25.603-25.603 25.603-0.165 0-0.33-0.002-0.495-0.005h0.025z" />
<glyph unicode="&#xe902;" glyph-name="align-center" data-tags="align-center" d="M864 600c0 22.092-17.908 40-40 40h-622c-22.092 0-40-17.908-40-40s17.908-40 40-40h622c22.092 0 40 17.908 40 40zM984 255.894c22.092 0 40 17.908 40 40v504.106c0 88.224-71.776 160-160 160h-704c-88.224 0-160-71.776-160-160v-704c0-88.224 71.776-160 160-160h704c88.224 0 160 71.776 160 160 0 22.092-17.908 40-40 40s-40-17.908-40-40c0-44.112-35.888-80-80-80h-704c-44.112 0-80 35.888-80 80v704c0 44.112 35.888 80 80 80h704c44.112 0 80-35.888 80-80v-504.106c0-22.092 17.908-40 40-40zM740 720c22.092 0 40 17.908 40 40s-17.908 40-40 40h-454c-22.092 0-40-17.908-40-40s17.908-40 40-40h454zM326 480c-22.092 0-40-17.908-40-40s17.908-40 40-40h374c22.092 0 40 17.908 40 40s-17.908 40-40 40h-374z" />
<glyph unicode="&#xe903;" glyph-name="align-justify" data-tags="align-justify" d="M864 600c0 22.092-17.908 40-40 40h-622c-22.092 0-40-17.908-40-40s17.908-40 40-40h622c22.092 0 40 17.908 40 40zM984 255.894c22.092 0 40 17.908 40 40v504.106c0 88.224-71.776 160-160 160h-704c-88.224 0-160-71.776-160-160v-704c0-88.224 71.776-160 160-160h704c88.224 0 160 71.776 160 160 0 22.092-17.908 40-40 40s-40-17.908-40-40c0-44.112-35.888-80-80-80h-704c-44.112 0-80 35.888-80 80v704c0 44.112 35.888 80 80 80h704c44.112 0 80-35.888 80-80v-504.106c0-22.092 17.908-40 40-40zM867.339 434.983c0 22.092-17.908 40-40 40h-622c-22.092 0-40-17.908-40-40s17.908-40 40-40h622c22.092 0 40 17.908 40 40zM867.339 738.712c0 22.092-17.908 40-40 40h-622c-22.092 0-40-17.908-40-40s17.908-40 40-40h622c22.092 0 40 17.908 40 40z" />
<glyph unicode="&#xe904;" glyph-name="align-left" data-tags="align-left" d="M864 600c0 22.092-17.908 40-40 40h-622c-22.092 0-40-17.908-40-40s17.908-40 40-40h622c22.092 0 40 17.908 40 40zM984 255.894c22.092 0 40 17.908 40 40v504.106c0 88.224-71.776 160-160 160h-704c-88.224 0-160-71.776-160-160v-704c0-88.224 71.776-160 160-160h704c88.224 0 160 71.776 160 160 0 22.092-17.908 40-40 40s-40-17.908-40-40c0-44.112-35.888-80-80-80h-704c-44.112 0-80 35.888-80 80v704c0 44.112 35.888 80 80 80h704c44.112 0 80-35.888 80-80v-504.106c0-22.092 17.908-40 40-40zM202 480c-22.092 0-40-17.908-40-40s17.908-40 40-40h374c22.092 0 40 17.908 40 40s-17.908 40-40 40h-374zM202 720h454c22.092 0 40 17.908 40 40s-17.908 40-40 40h-454c-22.092 0-40-17.908-40-40s17.908-40 40-40z" />
<glyph unicode="&#xe905;" glyph-name="align-right" data-tags="align-right" d="M983.998 255.895c22.092 0 40 17.908 40 40v504.105c0 88.224-71.776 160-160 160l-703.999-0.002c-88.224 0-160-71.776-160-160v-703.999c0-88.224 71.776-160 160-160l703.999 0.002c88.224 0 160 71.776 160 160 0 22.092-17.908 40-40 40s-40-17.908-40-40c0-44.112-35.888-80-80-80l-703.999-0.002c-44.112 0-80 35.888-80 80v703.999c0 44.112 35.888 80 80 80l703.999 0.002c44.112 0 80-35.888 80-80v-504.105c0-22.092 17.91-40 40-40zM821.998 640.001l-621.999-0.002c-22.092 0-40-17.908-40-40s17.91-40 40-40l621.999 0.002c22.092 0 40 17.908 40 40s-17.908 40-40 40zM821.998 480.001l-373.999-0.002c-22.092 0-40-17.908-40-40s17.91-40 40-40l373.999 0.002c22.092 0 40 17.908 40 40s-17.908 40-40 40zM821.998 800l-453.999-0.002c-22.092 0-40-17.908-40-40s17.91-40 40-40l453.999 0.002c22.092 0 40 17.908 40 40s-17.908 40-40 40z" />
<glyph unicode="&#xe906;" glyph-name="bold" data-tags="bold" d="M738.050 489.79c34.062 29.388 60.952 67.398 76.868 111.468 10.524 29.136 15.86 59.742 15.86 90.966-0.002 147.652-120.126 267.776-267.778 267.776h-432c-22.092 0-40-17.908-40-40v-944c0-22.092 17.908-40 40-40h518.606c43.984 0 88.002 9.116 123.946 25.668 20.066 9.24 28.842 32.998 19.602 53.062-9.242 20.066-32.996 28.85-53.064 19.602-25.672-11.822-57.806-18.332-90.484-18.332h-478.606v864h392c103.54 0 187.776-84.236 187.776-187.776 0-21.932-3.736-43.394-11.102-63.792-26.782-74.16-97.782-123.986-176.674-123.986-1.93 0-3.812-0.184-5.668-0.448h-226.332c-22.092 0-40-17.908-40-40s17.908-40 40-40h318.606c112.152 0 203.394-91.788 203.394-204.608 0-23.266-3.34-45.030-9.926-64.682-7.020-20.946 4.27-43.618 25.216-50.636 4.216-1.414 8.502-2.086 12.716-2.086 16.722 0 32.314 10.57 37.922 27.3 9.338 27.864 14.074 58.178 14.074 90.104-0.002 125.93-81.868 233-194.952 270.4z" />
<glyph unicode="&#xe907;" glyph-name="code" data-tags="code" d="M316 160.571l-28.571-28.571q-5.714-5.714-13.143-5.714t-13.143 5.714l-266.286 266.286q-5.714 5.714-5.714 13.143t5.714 13.143l266.286 266.286q5.714 5.714 13.143 5.714t13.143-5.714l28.571-28.571q5.714-5.714 5.714-13.143t-5.714-13.143l-224.571-224.571 224.571-224.571q5.714-5.714 5.714-13.143t-5.714-13.143zM653.714 770.286l-213.143-737.714q-2.286-7.429-8.857-11.143t-13.429-1.429l-35.429 9.714q-7.429 2.286-11.143 8.857t-1.429 14l213.143 737.714q2.286 7.429 8.857 11.143t13.429 1.429l35.429-9.714q7.429-2.286 11.143-8.857t1.429-14zM1029.143 398.286l-266.286-266.286q-5.714-5.714-13.143-5.714t-13.143 5.714l-28.571 28.571q-5.714 5.714-5.714 13.143t5.714 13.143l224.571 224.571-224.571 224.571q-5.714 5.714-5.714 13.143t5.714 13.143l28.571 28.571q5.714 5.714 13.143 5.714t13.143-5.714l266.286-266.286q5.714-5.714 5.714-13.143t-5.714-13.143z" />
<glyph unicode="&#xe908;" glyph-name="color" data-tags="color" d="M525.696 94.336c112 0 188.416 31.36 208.896 86.016 21.888 57.344 6.784 92.8-4.096 117.376-8.192 17.792-9.6 23.168-2.688 39.552 6.784 17.792 16.384 25.984 50.56 25.984 10.88 0 21.888-1.408 35.456-1.408 13.696-1.408 27.264-1.408 40.96-1.408 24.576 0 99.712 0 128.384 87.424 17.792 57.344 8.192 114.688-31.36 167.936-79.36 105.216-262.272 180.352-446.592 180.352-263.552 0-477.952-151.552-477.952-337.28 0-251.136 290.816-364.544 498.432-364.544zM505.216 714.24c154.24 0 316.8-64.128 378.24-148.864 23.168-31.36 30.080-64.128 19.072-94.208-5.504-21.888-14.976-30.080-49.152-30.080-10.88 0-21.888 1.408-34.176 1.408-13.696 1.408-27.264 1.408-40.96 1.408-23.168 0-94.208 0-125.568-76.416-20.48-49.152-5.504-81.92 4.096-103.808 8.192-19.072 12.288-28.672 2.688-54.656-4.096-10.88-43.648-34.176-133.76-34.176-173.44 1.408-416.512 88.832-416.512 284.032 0 140.672 177.536 255.36 396.032 255.36zM416.384 407.040c0-60.032 49.152-109.184 109.184-109.184s109.312 49.152 109.312 109.184-49.152 109.184-109.184 109.184-109.312-49.152-109.312-109.184zM525.696 434.304c14.976 0 27.264-12.288 27.264-27.264s-12.288-27.264-27.264-27.264c-14.976 0-27.264 12.288-27.264 27.264-0.128 14.976 12.16 27.264 27.264 27.264zM316.8 340.096c-8.192 42.368-36.864 47.744-49.152 47.744-2.688 0-5.504 0-8.192-1.408-24.576-4.096-45.056-24.576-47.744-49.152-4.096-21.888 6.784-42.368 25.984-51.84 12.288-6.784 25.984-9.6 38.272-9.6 17.792 0 32.768 8.192 40.96 21.888 5.248 12.416 5.248 27.392-0.128 42.368v0zM211.584 416.64c2.688 1.408 4.096 1.408 5.504 2.688 32.768 8.192 36.864 31.36 38.272 42.368 2.688 32.768-27.264 45.056-40.96 50.56l-1.408 1.408c-6.784 2.688-13.696 4.096-20.48 4.096-19.072 0-35.456-9.6-45.056-25.984s-10.88-36.864-1.408-54.656c8.192-16.384 23.168-25.984 40.96-25.984 11.008 0 19.2 4.096 24.576 5.504zM275.84 527.232c13.696 0 24.576 6.784 30.080 10.88 20.48 8.192 32.768 27.264 32.768 47.744 0 16.384-10.88 38.272-38.272 46.464-24.576 6.784-51.84-4.096-65.536-25.984-9.6-16.384-9.6-36.864 0-54.656 13.568-23.168 34.048-24.448 40.96-24.448zM419.2 581.76c1.408 0 2.688 0 5.504 0 1.408 0 2.688 0 4.096 0 23.168 0 43.648 16.384 47.744 39.552 4.096 24.576-12.288 47.744-35.456 55.936-6.784 1.408-12.288 2.688-19.072 2.688-23.168 0-49.152-16.384-50.56-51.84 0-12.288 4.096-23.168 12.288-32.768 12.16-13.568 28.544-13.568 35.456-13.568zM563.84 583.168c2.688 0 5.504 0 9.6 1.408 20.48 0 38.272 12.288 45.056 31.36s0 40.96-17.792 53.248c-9.6 6.784-20.48 10.88-31.36 10.88-25.984 0-47.744-19.072-50.56-46.464-2.688-19.072 5.504-30.080 10.88-36.864 5.504-3.968 16.512-13.568 34.176-13.568zM699.008 546.304c5.504-2.688 12.288-4.096 19.072-4.096 19.072 0 36.864 13.696 42.368 32.768 6.784 23.168-4.096 49.152-24.576 61.44-8.192 4.096-16.384 6.784-25.984 6.784-16.384 0-31.36-8.192-40.96-21.888-8.192-12.288-10.88-30.080-5.504-43.648 8.32-23.168 27.392-28.672 35.584-31.36z" />
<glyph unicode="&#xe909;" glyph-name="font-size" data-tags="font-size" d="M319 360h-238c-44.112 0-80-35.888-80-80 0-22.092 17.908-40 40-40s40 17.908 40 40h80v-304c0-22.092 17.908-40 40-40s40 17.908 40 40v304h78c0-22.092 17.908-40 40-40s40 17.908 40 40c0 44.112-35.888 80-80 80zM863 960h-544c-88.224 0-160-71.776-160-160v-56c0-22.092 17.908-40 40-40s40 17.908 40 40v56c0 44.112 35.888 80 80 80h544c44.112 0 80-35.888 80-80v-56c0-22.092 17.908-40 40-40s40 17.908 40 40v56c0 88.224-71.776 160-160 160zM591 800c-22.092 0-40-17.908-40-40v-782c0-22.092 17.908-40 40-40s40 17.908 40 40v782c0 22.092-17.908 40-40 40z" />
<glyph unicode="&#xe90a;" glyph-name="font-type" data-tags="font-type" d="M984 960h-944c-22.092 0-40-17.908-40-40v-176c0-22.092 17.908-40 40-40s40 17.908 40 40v136h312v-864h-60c-22.092 0-40-17.908-40-40s17.908-40 40-40h360c22.092 0 40 17.908 40 40s-17.908 40-40 40h-60v704c0 22.092-17.908 40-40 40s-40-17.908-40-40v-704h-80v864h472v-136c0-22.092 17.908-40 40-40s40 17.908 40 40v176c0 22.092-17.908 40-40 40z" />
<glyph unicode="&#xe90b;" glyph-name="image" data-tags="image" d="M736 512c53 0 96 43 96 96s-43 96-96 96c-53 0-96-43-96-96s43-96 96-96zM904 832h-784c-31.2 0-56-25.4-56-56.6v-654.8c0-31.2 24.8-56.6 56-56.6h784c31.2 0 56 25.4 56 56.6v654.8c0 31.2-24.8 56.6-56 56.6zM697.8 436.6c-6 7-15.2 12.4-25.6 12.4-10.2 0-17.4-4.8-25.6-11.4l-37.4-31.6c-7.8-5.6-14-9.4-23-9.4-8.6 0-16.4 3.2-22 8.2-2 1.8-5.6 5.2-8.6 8.2l-107.6 116.4c-8 9.2-20 15-33.4 15s-25.8-6.6-33.6-15.6l-253-305.2v521c2 13.6 12.6 23.4 26.2 23.4h715.4c13.8 0 25-10.2 25.8-24l0.6-520.8-198.2 213.4z" />
<glyph unicode="&#xe90c;" glyph-name="indent-left" data-tags="indent-left" d="M163.62 235.81c7.82-7.87 18.098-11.81 28.38-11.81 10.192 0 20.388 3.872 28.19 11.622 15.672 15.568 15.758 40.896 0.19 56.568l-128.664 129.526c-7.554 7.556-11.716 17.6-11.716 28.284s4.162 20.728 11.81 28.378l128.568 129.432c15.568 15.672 15.484 41-0.19 56.568-15.672 15.568-41 15.484-56.568-0.19l-128.474-129.336c-22.664-22.664-35.146-52.8-35.146-84.852s12.482-62.188 35.052-84.758l128.568-129.432zM40 880h944c22.092 0 40 17.908 40 40s-17.908 40-40 40h-944c-22.092 0-40-17.908-40-40s17.908-40 40-40zM984 16h-944c-22.092 0-40-17.908-40-40s17.908-40 40-40h944c22.092 0 40 17.908 40 40s-17.908 40-40 40zM984 252h-560c-22.092 0-40-17.908-40-40s17.908-40 40-40h560c22.092 0 40 17.908 40 40s-17.908 40-40 40zM984 724h-560c-22.092 0-40-17.908-40-40s17.908-40 40-40h560c22.092 0 40 17.908 40 40s-17.908 40-40 40zM984 488h-560c-22.092 0-40-17.908-40-40s17.908-40 40-40h560c22.092 0 40 17.908 40 40s-17.908 40-40 40z" />
<glyph unicode="&#xe90d;" glyph-name="indent-right" data-tags="indent-right" d="M139.974 419.402l-128.568-131.432c-15.448-15.792-15.168-41.118 0.624-56.564 7.782-7.614 17.878-11.406 27.968-11.406 10.384 0 20.76 4.020 28.596 12.030l128.43 131.29c22.558 22.644 34.976 52.708 34.976 84.68 0 32.052-12.482 62.188-35.052 84.758l-128.568 129.432c-15.568 15.674-40.896 15.76-56.568 0.19-15.672-15.568-15.758-40.896-0.19-56.568l128.664-129.526c7.552-7.558 11.714-17.602 11.714-28.286s-4.162-20.728-11.716-28.284c-0.104-0.104-0.208-0.208-0.31-0.314zM40 880h944c22.092 0 40 17.908 40 40s-17.908 40-40 40h-944c-22.092 0-40-17.908-40-40s17.908-40 40-40zM984 16h-944c-22.092 0-40-17.908-40-40s17.908-40 40-40h944c22.092 0 40 17.908 40 40s-17.908 40-40 40zM984 724h-560c-22.092 0-40-17.908-40-40s17.908-40 40-40h560c22.092 0 40 17.908 40 40s-17.908 40-40 40zM984 488h-560c-22.092 0-40-17.908-40-40s17.908-40 40-40h560c22.092 0 40 17.908 40 40s-17.908 40-40 40zM984 252h-560c-22.092 0-40-17.908-40-40s17.908-40 40-40h560c22.092 0 40 17.908 40 40s-17.908 40-40 40z" />
<glyph unicode="&#xe90e;" glyph-name="italic" data-tags="italic" d="M588.41 787.108c-21.602 4.646-42.872-9.1-47.514-30.698l-159.206-740.402h-107.688c-22.092 0-40-17.908-40-40s17.908-40 40-40h139.742c0.098-0.002 0.198-0.008 0.296-0.008 0.060 0 0.12 0.008 0.18 0.008h133.78c22.092 0 40 17.908 40 40s-17.908 40-40 40h-84.486l155.59 723.586c4.646 21.598-9.098 42.87-30.694 47.514zM749.998 960h-273.998c-22.092 0-40-17.908-40-40s17.908-40 40-40h273.998c22.092 0 40 17.908 40 40s-17.908 40-40 40z" />
<glyph unicode="&#xe90f;" glyph-name="left-quote" data-tags="left-quote" d="M244.836 569.94l-1.834 0.046c-22.090 0.49-40.436-16.902-40.99-38.986-0.552-22.084 16.902-40.436 38.986-40.99l2.176-0.052c86.474-1.674 156.826-73.432 156.826-159.958 0-88.224-71.776-160-160-160s-160 71.776-160 160c0 110.196 26.208 211.88 77.902 302.23 38.634 67.53 77.922 103.2 78.656 103.86 16.476 14.626 18.024 39.842 3.436 56.376-14.618 16.562-39.892 18.144-56.458 3.53-1.934-1.708-47.892-42.698-93.132-120.67-41.244-71.082-90.404-188.692-90.404-345.326 0-132.336 107.664-240 240-240s240 107.664 240 240c0 63.282-24.416 122.994-68.748 168.138-44.244 45.052-103.344 70.55-166.416 71.802zM955.252 498.138c-44.246 45.054-103.342 70.552-166.418 71.802l-1.832 0.046c-22.018 0.49-40.436-16.902-40.99-38.986s16.902-40.436 38.986-40.99l2.176-0.052c86.474-1.676 156.826-73.434 156.826-159.958 0-88.224-71.776-160-160-160s-160 71.776-160 160c0 110.196 26.208 211.882 77.9 302.228 38.634 67.53 77.922 103.2 78.656 103.86 16.478 14.628 18.024 39.842 3.436 56.376-14.616 16.564-39.892 18.146-56.458 3.53-1.932-1.708-47.892-42.698-93.132-120.67-41.242-71.080-90.402-188.69-90.402-345.324 0-132.336 107.664-240 240-240s240 107.664 240 240c0 63.282-24.416 122.994-68.748 168.138z" />
<glyph unicode="&#xe910;" glyph-name="link" data-tags="link" d="M949.358 884.504c-9.376 9.366-19.218 18.012-29.244 25.696l-1.908 1.464c-1.218 1.16-2.514 2.246-3.876 3.248-40.634 29.918-85.214 45.088-132.504 45.088-73.786 0-150.538-37.67-221.96-108.934-0.696-0.696-1.366-1.416-2.010-2.16l-3.134-3.626-3.638-3.146c-0.74-0.64-1.456-1.306-2.146-1.998-71.266-71.376-108.936-148.13-108.936-221.96 0-31.554 7.372-62.984 21.906-93.418 0.752-1.574 1.606-3.096 2.556-4.558 3.022-4.65 14.092-21.5 25.904-37.264l-164.652-164.652c-15.622-15.622-15.622-40.95 0-56.57 7.81-7.81 18.048-11.714 28.286-11.714s20.474 3.904 28.286 11.714l96.16 96.16c4.14-7.154 8.222-14.68 11.618-21.444 9.248-19.472 13.938-39.188 13.938-58.604 0-51.862-29.222-108.69-84.536-164.418l-4.708-4.070c-1.464-1.268-2.836-2.638-4.104-4.104l-4.052-4.69c-55.772-55.314-112.606-84.544-164.428-84.544-28.836 0-56.524 9.264-82.346 27.542-0.82 0.746-1.674 1.458-2.556 2.134l-4.708 3.612c-7.276 5.576-14.472 11.908-21.392 18.818-33.954 33.906-51.17 70.938-51.17 110.064 0 51.868 29.23 108.704 84.542 164.43l4.708 4.076c1.454 1.258 2.814 2.62 4.072 4.074l4.064 4.696c52.866 52.44 106.448 81.7 155.020 84.626 22.050 1.33 38.85 20.284 37.52 42.336-1.33 22.050-20.298 38.864-42.336 37.52-69.65-4.2-139.542-40.828-207.728-108.864-0.69-0.692-1.356-1.406-1.994-2.144l-3.152-3.64-3.648-3.158c-0.732-0.634-1.444-1.296-2.128-1.982-71.27-71.376-108.94-148.13-108.94-221.968 0-61.136 25.114-117.214 74.642-166.674 9.376-9.366 19.218-18.012 29.244-25.696l1.908-1.464c1.218-1.16 2.514-2.246 3.876-3.248 40.634-29.918 85.214-45.088 132.504-45.088 73.786 0 150.538 37.67 221.96 108.934 0.696 0.696 1.366 1.416 2.010 2.16l3.134 3.626 3.638 3.146c0.74 0.64 1.456 1.306 2.146 1.998 71.266 71.376 108.936 148.13 108.936 221.96 0 31.55-7.372 62.98-21.906 93.414-0.104 0.216-0.208 0.434-0.316 0.648-2.716 5.434-12.94 25.458-25.168 44.15l161.676 161.676c15.622 15.622 15.622 40.95 0 56.57s-40.95 15.622-56.57 0l-94.080-94.080c-5.244 7.368-10.5 15.076-14.616 21.33-8.64 18.832-13.020 37.876-13.020 56.642 0 51.862 29.222 108.69 84.536 164.418l4.708 4.070c1.464 1.268 2.836 2.638 4.104 4.104l4.052 4.69c55.768 55.314 112.602 84.542 164.424 84.542 28.836 0 56.524-9.264 82.346-27.542 0.82-0.746 1.674-1.458 2.556-2.134l4.708-3.612c7.276-5.576 14.472-11.908 21.392-18.818 33.954-33.906 51.17-70.938 51.17-110.064 0-51.87-29.224-108.702-84.542-164.432l-4.708-4.074c-1.454-1.258-2.814-2.62-4.072-4.074l-4.060-4.694c-51.42-50.972-105.69-79.538-157.024-82.632-22.050-1.33-38.85-20.284-37.52-42.336 1.282-21.232 18.898-37.594 39.89-37.594 0.808 0 1.626 0.026 2.446 0.074 71.456 4.308 143.976 41.264 209.728 106.868 0.69 0.692 1.356 1.406 1.994 2.144l3.152 3.642 3.648 3.156c0.732 0.634 1.444 1.296 2.128 1.982 71.27 71.376 108.94 148.13 108.94 221.968 0.002 61.138-25.112 117.216-74.64 166.676z" />
<glyph unicode="&#xe911;" glyph-name="list" data-tags="list" d="M118 172c-65.066 0-118-52.934-118-118s52.934-118 118-118c22.092 0 40 17.908 40 40s-17.908 40-40 40c-20.954 0-38 17.046-38 38s17.046 38 38 38 38-17.046 38-38c0-22.092 17.908-40 40-40s40 17.908 40 40c0 65.066-52.934 118-118 118zM364 802h620c22.092 0 40 17.908 40 40s-17.908 40-40 40h-620c-22.092 0-40-17.908-40-40s17.908-40 40-40zM118 566c-65.066 0-118-52.934-118-118s52.934-118 118-118c22.092 0 40 17.908 40 40s-17.908 40-40 40c-20.954 0-38 17.046-38 38s17.046 38 38 38 38-17.046 38-38c0-22.092 17.908-40 40-40s40 17.908 40 40c0 65.066-52.934 118-118 118zM984 488h-620c-22.092 0-40-17.908-40-40s17.908-40 40-40h620c22.092 0 40 17.908 40 40s-17.908 40-40 40zM984 94h-620c-22.092 0-40-17.908-40-40s17.908-40 40-40h620c22.092 0 40 17.908 40 40s-17.908 40-40 40zM118 960c-65.066 0-118-52.934-118-118s52.934-118 118-118c22.092 0 40 17.908 40 40s-17.908 40-40 40c-20.954 0-38 17.046-38 38s17.046 38 38 38 38-17.046 38-38c0-22.092 17.908-40 40-40s40 17.908 40 40c0 65.066-52.934 118-118 118z" />
<glyph unicode="&#xe912;" glyph-name="list-1" data-tags="list-1" d="M65.374 826.642l15.468 11.986v-118.162c0-22.048 17.874-39.922 39.922-39.922s39.922 17.874 39.922 39.922v199.612c0 15.234-8.672 29.144-22.35 35.846-13.682 6.706-29.986 5.040-42.026-4.292l-79.844-61.878c-17.426-13.506-20.606-38.584-7.1-56.012 13.504-17.424 38.578-20.606 56.008-7.1zM364.288 780.352h618.792c22.048 0 39.922 17.874 39.922 39.922s-17.874 39.922-39.922 39.922h-618.792c-22.048 0-39.922-17.874-39.922-39.922 0-22.050 17.874-39.922 39.922-39.922zM102.222 237.412c-0.24 0-0.472-0.032-0.708-0.036-0.24 0.004-0.47 0.036-0.708 0.036-35.142 0-68.052-17.98-85.886-46.924-11.566-18.772-5.724-43.366 13.046-54.93 6.53-4.022 13.76-5.94 20.906-5.94 13.396 0 26.484 6.742 34.026 18.984 3.356 5.448 10.386 8.966 17.912 8.966 0.24 0 0.472 0.032 0.708 0.036 0.24-0.004 0.47-0.036 0.708-0.036 10.818 0 19.962-9.142 19.962-19.96 0-3.096-8.626-11.792-17.114-16.112l0.36 0.176 0.012-0.032c-8.878-4.278-16.214-11.796-19.994-21.734-7.84-20.606 2.508-43.668 23.114-51.51 4.206-1.6 12.694-7.57 13.62-10.596 0-10.818-9.142-19.962-19.962-19.962-2.578 0-5.092-0.266-7.534-0.732-4.63 1.774-9.084 5.296-11.796 9.7-11.568 18.77-36.16 24.614-54.93 13.046-18.772-11.566-24.612-36.16-13.046-54.93 18.59-30.176 51.5-48.922 85.886-48.922 5.318 0 10.38 1.060 15.020 2.946 48.62 6.656 86.204 48.438 86.204 98.854 0 19.78-7.034 36.212-16.982 49.34 9.642 13.224 16.982 29.994 16.982 50.466 0 55.034-44.774 99.806-99.806 99.806zM983.080 488.92h-618.792c-22.048 0-39.922-17.874-39.922-39.922s17.874-39.922 39.922-39.922h618.792c22.048 0 39.922 17.874 39.922 39.922 0 22.050-17.874 39.922-39.922 39.922zM983.080 127.626h-618.792c-22.048 0-39.922-17.874-39.922-39.922s17.874-39.922 39.922-39.922h618.792c22.048 0 39.922 17.874 39.922 39.922s-17.874 39.922-39.922 39.922zM164.678 387.12h-28.594c58.316 66.104 65.944 98.692 65.944 119.766 0 55.032-44.772 99.806-99.806 99.806-0.24 0-0.472-0.032-0.708-0.036-0.24 0.004-0.47 0.036-0.708 0.036-55.032 0-99.806-44.772-99.806-99.806 0-22.048 17.874-39.922 39.922-39.922s39.922 17.874 39.922 39.922c0 10.818 9.142 19.96 19.962 19.96 0.24 0 0.472 0.032 0.708 0.036 0.24-0.004 0.47-0.036 0.708-0.036 10.682 0 19.724-8.906 19.958-19.542-0.39-2.054-5.306-22.618-52.28-74.418-27.826-30.688-55.514-55.858-55.782-56.102-12.232-11.082-16.384-28.55-10.446-43.95s20.742-25.558 37.248-25.558h123.758c22.048 0 39.922 17.874 39.922 39.922s-17.872 39.922-39.922 39.922z" />
<glyph unicode="&#xe913;" glyph-name="right-quote" data-tags="right-quote" d="M784 806c-132.336 0-240-107.664-240-240 0-63.282 24.416-122.994 68.748-168.138 44.234-45.042 103.318-70.54 166.378-71.8l1.832-0.046c22.108-0.666 40.452 16.862 41.028 38.946s-16.862 40.452-38.946 41.028l-2.214 0.056c-86.474 1.672-156.826 73.432-156.826 159.954 0 88.224 71.776 160 160 160s160-71.776 160-160c0-110.196-26.208-211.88-77.902-302.23-38.634-67.53-77.922-103.2-78.656-103.86-16.476-14.626-18.024-39.842-3.436-56.376 7.906-8.958 18.932-13.536 30.010-13.536 9.402 0.002 18.844 3.298 26.448 10.008 1.934 1.708 47.892 42.698 93.132 120.67 41.244 71.080 90.404 188.692 90.404 345.324 0 132.338-107.664 240-240 240zM240 806c-132.336 0-240-107.662-240-240 0-63.282 24.416-122.994 68.748-168.142 44.234-45.042 103.318-70.538 166.378-71.8l1.832-0.046c22.060-0.666 40.454 16.862 41.028 38.946 0.576 22.084-16.862 40.452-38.946 41.028l-2.214 0.056c-86.474 1.676-156.826 73.436-156.826 159.958 0 88.224 71.776 160 160 160s160-71.776 160-160c0-110.196-26.208-211.88-77.902-302.228-38.634-67.53-77.922-103.2-78.656-103.86-16.478-14.628-18.024-39.842-3.436-56.376 7.906-8.96 18.932-13.536 30.010-13.536 9.402 0 18.844 3.296 26.45 10.006 1.932 1.708 47.892 42.698 93.132 120.67 41.242 71.080 90.402 188.69 90.402 345.324 0 132.338-107.664 240-240 240z" />
<glyph unicode="&#xe914;" glyph-name="strikethrough" data-tags="strikethrough" d="M734.358 341.602c-16.348-14.858-17.554-40.158-2.696-56.504 27.144-29.864 40.338-63.55 40.338-102.984 0-41.48-25.044-81.532-70.52-112.776-50.062-34.396-117.354-53.338-189.48-53.338s-139.418 18.942-189.482 53.338c-45.476 31.244-70.52 71.294-70.52 112.776 0 22.092-17.908 40-40 40s-40-17.908-40-40c0-68.628 37.368-132.096 105.218-178.712 63.262-43.464 146.642-67.402 234.784-67.402 88.138 0 171.52 23.938 234.782 67.4 67.85 46.618 105.218 110.084 105.218 178.714 0 59.408-20.57 112.16-61.138 156.792-14.858 16.348-40.158 17.554-56.504 2.696zM984 488h-462.468c-143.742 61.998-221.532 117.246-221.532 225.886 0 91.594 95.102 166.114 212 166.114s212-74.52 212-166.114c0-22.092 17.908-40 40-40s40 17.908 40 40c0 67.282-31.424 130.036-88.484 176.706-54.724 44.758-127 69.408-203.516 69.408s-148.792-24.65-203.516-69.408c-57.060-46.67-88.484-109.424-88.484-176.706 0-78.928 29.996-143.516 91.7-197.45 11.614-10.154 24.064-19.576 37.022-28.436h-308.722c-22.092 0-40-17.908-40-40s17.908-40 40-40h944c22.092 0 40 17.908 40 40s-17.908 40-40 40z" />
<glyph unicode="&#xe915;" glyph-name="underline" data-tags="underline" d="M799.984 335.126c5.67-2.784 11.678-4.102 17.594-4.102 14.776 0 28.986 8.224 35.936 22.386 25.536 52.036 38.486 107.986 38.486 166.302v395.412c0 22.092-17.908 40-40 40s-40-17.908-40-40v-395.41c0-45.992-10.196-90.086-30.302-131.056-9.732-19.832-1.546-43.798 18.286-53.532zM984 20.876h-944c-22.092 0-40-17.908-40-40s17.908-40 40-40h944c22.092 0 40 17.908 40 40s-17.908 40-40 40zM511.998 140.878c70.67-0.002 139.654 19.484 199.498 56.348 18.81 11.586 24.664 36.226 13.078 55.036-11.588 18.814-36.228 24.668-55.036 13.078-47.22-29.088-101.698-44.462-157.54-44.462-165.42 0-300 134.056-300 298.836v395.41c0 22.092-17.908 40-40 40s-40-17.908-40-40v-395.41c0-208.89 170.466-378.836 380-378.836z" />
<glyph unicode="&#xe916;" glyph-name="upload" data-tags="upload" d="M264.488 647.92l217.308 220.446c7.546 7.504 17.558 11.634 28.204 11.634 10.684 0 20.728-4.162 28.338-11.772l221.434-220.568c7.806-7.776 18.016-11.662 28.228-11.66 10.262 0 20.526 3.926 28.34 11.772 15.59 15.652 15.542 40.978-0.112 56.568l-221.376 220.512c-22.664 22.666-52.8 35.148-84.852 35.148s-62.188-12.482-84.852-35.148c-0.068-0.068-0.134-0.136-0.202-0.204l-217.432-220.566c-15.508-15.732-15.328-41.058 0.406-56.568 15.732-15.508 41.060-15.328 56.568 0.406zM472 720v-490c0-22.092 17.908-40 40-40s40 17.908 40 40v490c0 22.092-17.908 40-40 40s-40-17.908-40-40zM984 136c-22.092 0-40-17.908-40-40 0-44.112-35.888-80-80-80h-704c-44.112 0-80 35.888-80 80 0 22.092-17.908 40-40 40s-40-17.908-40-40c0-88.224 71.776-160 160-160h704c88.224 0 160 71.776 160 160 0 22.092-17.908 40-40 40z" />
<glyph unicode="&#xe917;" glyph-name="fullscreen" data-tags="fullscreen" d="M377.433 403.144l-201.862-201.854-67.28 67.285c-18.143 18.147-45.429 23.564-69.133 13.753-23.704-9.82-39.157-32.953-39.157-58.611v-224.277c0-35.034 28.403-63.436 63.436-63.436l224.281-0.004c0.030 0.004 0.051 0.004 0.080 0 35.038 0 63.436 28.403 63.436 63.436 0 18.511-7.93 35.169-20.574 46.769l-65.373 65.373 201.854 201.85c24.774 24.774 24.774 64.938 0 89.711-24.765 24.778-64.938 24.774-89.707 0.004zM960.564 960h-224.281c-25.658 0-48.787-15.457-58.607-39.161-9.816-23.704-4.39-50.99 13.753-69.133l67.289-67.289-201.85-201.854c-24.774-24.774-24.774-64.938 0-89.711 12.387-12.387 28.622-18.578 44.854-18.578 16.235 0 32.471 6.191 44.854 18.583l201.854 201.854 67.28-67.285c12.133-12.137 28.36-18.583 44.866-18.583 8.175 0 16.417 1.577 24.262 4.83 23.704 9.82 39.161 32.953 39.161 58.607v224.285c0 35.034-28.403 63.436-63.436 63.436z" />
<glyph unicode="&#xe918;" glyph-name="subscript" data-tags="subscript" d="M917.233-64h-213.277c-11.779-0.020-21.344 9.511-21.366 21.29-0.010 5.678 2.245 11.127 6.266 15.138l168.019 168.061c24.887 25.005 38.912 58.816 39.029 94.097 0 47.115-38.194 85.311-85.311 85.311s-85.311-38.196-85.311-85.311v-21.328c0-11.779-9.549-21.328-21.328-21.328s-21.328 9.549-21.328 21.328v21.328c0 70.673 57.293 127.966 127.966 127.966s127.966-57.293 127.966-127.966c0.132-46.647-18.407-91.407-51.484-124.296l-131.635-131.635h161.79c11.779 0 21.328-9.549 21.328-21.328 0.002-11.779-9.545-21.326-21.324-21.326zM106.783 106.62c-4.031-0.004-7.98 1.136-11.389 3.285-9.963 6.282-12.947 19.453-6.664 29.416 0.004 0.006 0.006 0.010 0.010 0.016l511.862 810.448c6.29 9.965 19.467 12.945 29.432 6.654s12.945-19.467 6.654-29.432v0l-511.862-810.448c-3.909-6.19-10.721-9.943-18.043-9.939zM618.645 106.62c-7.322-0.004-14.134 3.749-18.043 9.939l-511.862 810.448c-6.29 9.965-3.311 23.142 6.654 29.432s23.142 3.311 29.432-6.654l511.862-810.448c6.292-9.957 3.319-23.13-6.638-29.422-0.006-0.004-0.010-0.006-0.016-0.010-3.409-2.149-7.358-3.289-11.389-3.285zM810.59 363.551c-71.213 0-128.965-57.752-128.965-128.965v-21.326c0-12.319 10.011-22.33 22.33-22.33s22.326 10.011 22.326 22.33v21.326c0 46.575 37.736 84.313 84.313 84.313s84.309-37.738 84.309-84.313c0.089-35.068-13.856-68.715-38.732-93.432h-0.004l-168.017-168.021c-4.208-4.198-6.571-9.9-6.561-15.843 0.023-12.318 10.048-22.31 22.365-22.291h213.278c12.319 0 22.324 10.009 22.322 22.33 0 12.319-10.007 22.326-22.326 22.326h-159.379l129.93 129.93c33.271 33.072 51.917 78.088 51.775 125.001 0 71.213-57.752 128.965-128.965 128.965zM810.59 361.552c70.133 0 126.966-56.833 126.966-126.966 0.141-46.383-18.294-90.891-51.189-123.588l-133.343-133.343h164.206c11.238 0 20.327-9.088 20.327-20.327 0.002-11.241-9.084-20.33-20.323-20.33h-213.278c-11.239-0.020-20.345 9.057-20.366 20.295-0.010 5.413 2.142 10.603 5.975 14.426l168.017 168.021c25.252 25.092 39.411 59.247 39.321 94.846 0 47.656-38.651 86.313-86.309 86.313s-86.313-38.657-86.313-86.313v-21.326c0-11.238-9.088-20.33-20.327-20.33s-20.33 9.092-20.33 20.33v21.326c0 70.133 56.833 126.966 126.966 126.966zM622.157 960.75c-8.602 1.28-17.541-2.557-22.357-10.435l-511.862-810.446c-2.248-3.559-3.442-7.682-3.448-11.891-0.019-12.319 9.972-22.338 22.291-22.357h0.004c7.689-0.010 14.843 3.938 18.932 10.446h-0.004l511.862 810.446c0.11 0.17 0.222 0.342 0.328 0.515 6.422 10.514 3.095 24.275-7.42 30.695-2.629 1.605-5.457 2.6-8.326 3.027zM621.852 958.782c2.612-0.391 5.19-1.3 7.588-2.765 9.592-5.857 12.615-18.353 6.756-27.946-0.099-0.162-0.202-0.322-0.305-0.48l-0.004-0.004-511.866-810.457c-3.724-5.928-10.234-9.519-17.238-9.509-11.239 0.018-20.312 9.119-20.295 20.358 0.006 3.833 1.093 7.582 3.14 10.821l511.87 810.461c4.393 7.194 12.518 10.693 20.354 9.521zM103.148 960.437c-2.863-0.47-5.681-1.507-8.287-3.151-10.422-6.579-13.546-20.39-6.967-30.812l511.862-810.45c4.092-6.479 11.225-10.408 18.889-10.403 4.224-0.002 8.361 1.192 11.934 3.448 10.414 6.579 13.534 20.384 6.955 30.8l-511.862 810.45c-4.934 7.817-13.936 11.527-22.525 10.118zM103.48 958.473c7.82 1.289 16.001-2.089 20.502-9.22l511.862-810.45c6.002-9.502 3.17-22.041-6.33-28.043-3.253-2.054-7.022-3.142-10.868-3.14-6.98-0.004-13.472 3.573-17.198 9.474l-511.862 810.446c-6.002 9.508-3.166 22.053 6.342 28.055 2.377 1.5 4.946 2.449 7.553 2.878z" />
<glyph unicode="&#xe919;" glyph-name="superscript" data-tags="superscript" d="M106.746-64c-11.782 0.018-21.32 9.582-21.302 21.364 0.006 4.022 1.148 7.96 3.296 11.36l512 810.666c6.292 9.968 19.472 12.948 29.44 6.656s12.948-19.472 6.656-29.44l-512-810.666c-3.918-6.204-10.75-9.958-18.090-9.94zM618.748-64c-7.324-0.004-14.138 3.75-18.048 9.942l-512 810.666c-6.292 9.968-3.312 23.148 6.656 29.44s23.148 3.312 29.44-6.656l512-810.666c6.292-9.962 3.316-23.138-6.646-29.43-3.412-2.156-7.366-3.298-11.402-3.296zM810.742 961c-71.232 0-129-57.768-129-129v-21.336c0-12.322 10.013-22.332 22.336-22.332s22.332 10.010 22.332 22.332v21.336c0 46.588 37.748 84.336 84.336 84.336s84.332-37.748 84.332-84.336v-0.004c0.089-35.077-13.86-68.727-38.742-93.449v-0.004l-168.066-168.063c-4.21-4.2-6.573-9.906-6.563-15.852 0.023-12.321 10.050-22.314 22.371-22.293h213.336c12.322 0 22.332 10.006 22.332 22.328s-10.010 22.336-22.332 22.336h-159.418l129.957 129.965c33.28 33.081 51.931 78.11 51.789 125.035 0 71.232-57.768 129-129 129zM809.783 942.125c70.152 0 110.060-111.21 110.060-111.21l-2.712-10.851c-16.13-46.937-10.43-68.403-43.335-101.109l4.017-0.809-181.449-182.122 222.967 6.76c11.236 0.341 6.5 22.557 6.5 11.316s-9.45-5.412-8.034-10.944l-212.569-3.068c-11.241-0.021 27.398 4.645 27.377 15.886-0.010 5.414-44.336 14.505-42.922 13.087l27.613-13.419 168.063 168.059-7.545-5.556c25.259 25.097 44.845 86.381 44.756 121.99 0 47.668-74.526 106.701-122.194 106.701s-90.847-66.499-96.1-113.878l-2.493-22.486c-1.239-11.173 11.428-0.006 0.186-0.006s-4.707-10.782-0.010-0.57l37.776 82.123c0 0-0.104 50.105 70.048 50.105zM622.258 790.359c-8.609 1.281-17.555-2.561-22.371-10.449l-511.992-810.652c-2.249-3.559-3.443-7.68-3.449-11.891-0.019-12.323 9.978-22.348 22.301-22.367 7.691-0.010 14.847 3.939 18.938 10.449h-0.004l511.996 810.652c0.113 0.174 0.223 0.35 0.332 0.527 6.424 10.517 3.095 24.281-7.422 30.703-2.629 1.606-5.459 2.6-8.328 3.027zM621.953 788.391c2.612-0.391 5.191-1.301 7.59-2.766 9.595-5.858 12.618-18.358 6.758-27.953-0.099-0.161-0.202-0.323-0.305-0.48l-0.004-0.004-512.004-810.672c-3.725-5.93-10.237-9.525-17.242-9.516-11.242 0.018-20.318 9.122-20.301 20.363 0.006 3.834 1.093 7.588 3.141 10.828l512.008 810.676c4.394 7.196 12.522 10.696 20.359 9.523zM102.664 790.219c-2.856-0.507-5.659-1.583-8.242-3.262-10.333-6.714-13.273-20.561-6.559-30.895l511.992-810.656c4.093-6.481 11.229-10.41 18.895-10.406 4.196 0.002 8.306 1.188 11.863 3.422 10.434 6.556 13.587 20.359 7.031 30.793l-0.004 0.004-512 810.664c-0.106 0.174-0.214 0.346-0.324 0.516-5.036 7.75-14.084 11.341-22.652 9.82zM103.023 788.258c7.801 1.391 16.023-1.879 20.617-8.949 0.103-0.158 0.202-0.318 0.301-0.48l0.004-0.008 512.004-810.672c5.978-9.518 3.119-22.051-6.398-28.031-3.239-2.034-6.985-3.115-10.805-3.117-6.982-0.004-13.472 3.574-17.199 9.477l-512.008 810.676c-6.126 9.427-3.454 22.003 5.973 28.129 2.357 1.531 4.911 2.513 7.512 2.977z" />
<glyph unicode="&#xe91a;" glyph-name="printer" data-tags="printer" d="M847.32 750.107h-26.316v58.575c0 83.406-67.913 151.319-151.319 151.319h-317.705c-83.406 0-151.319-67.913-151.319-151.319v-58.575h-23.982c-83.406 0-151.319-67.913-151.319-151.319v-244.062c0-83.406 67.913-151.319 151.319-151.319h23.77v-191.854c0-41.597 33.956-75.553 75.553-75.553h469.236c41.597 0 75.553 33.956 75.553 75.553v191.854h26.528c83.406 0 151.319 67.913 151.319 151.319v244.062c0 83.406-67.913 151.319-151.319 151.319zM257.751 808.681c0 51.784 42.233 94.017 94.017 94.017h317.493c51.784 0 94.017-42.233 94.017-94.017v-58.575h-505.527v58.575zM763.49 11.129c0-9.975-8.277-18.252-18.252-18.252h-469.236c-9.975 0-18.252 8.277-18.252 18.252v316.432h505.739v-316.432zM941.337 354.514c0-51.784-42.233-94.017-94.017-94.017h-26.316v67.064h37.777c15.917 0 28.651 12.734 28.651 28.651s-12.734 28.651-28.651 28.651h-700.352c-15.917 0-28.651-12.734-28.651-28.651s12.734-28.651 28.651-28.651h42.233v-67.064h-23.982c-51.784 0-94.017 42.233-94.017 94.017v244.062c0 51.784 42.233 94.017 94.017 94.017h670.64c51.784 0 94.017-42.233 94.017-94.017v-244.062zM327.149 186.641h364.82c15.917 0 28.651 12.734 28.651 28.651s-12.734 28.651-28.651 28.651h-364.82c-15.917 0-28.651-12.734-28.651-28.651s12.946-28.651 28.651-28.651zM694.304 126.793h-365.032c-15.917 0-28.651-12.734-28.651-28.651s12.734-28.651 28.651-28.651h364.82c15.917 0 28.651 12.734 28.651 28.651s-12.734 28.651-28.439 28.651zM846.684 637.626h-58.15c-15.917 0-28.651-12.734-28.651-28.651s12.734-28.651 28.651-28.651h58.15c15.917 0 28.651 12.734 28.651 28.651s-12.734 28.651-28.651 28.651z" />
<glyph unicode="&#xe91b;" glyph-name="emoticon" data-tags="emoticon" d="M739.785 582.289c0-32.585-26.397-58.998-58.982-58.998-32.569 0-58.982 26.413-58.982 58.998s26.413 58.982 58.982 58.982c32.585 0 58.982-26.397 58.982-58.982zM400.655 582.289c0-32.585-26.413-58.998-58.982-58.998s-58.982 26.413-58.982 58.998 26.413 58.982 58.982 58.982 58.982-26.397 58.982-58.982zM557.103 145.256h-81.91c-103.737 0-188.142 83.384-188.142 185.906 0 13.432 10.889 24.305 24.305 24.305s24.305-10.873 24.305-24.305c0-76.985 61.283-137.295 139.531-137.295h81.91c78.248 0 139.531 59.307 139.531 135.027 0 13.432 10.889 24.305 24.305 24.305 13.432 0 24.305-10.873 24.305-24.305 0.002-102.974-82.639-183.637-188.142-183.637zM512.008-64c-282.255 0-511.878 229.688-511.878 512.008 0 282.303 229.623 511.992 511.878 511.992 282.238 0 511.862-229.688 511.862-511.992 0-282.318-229.623-512.008-511.862-512.008zM512.008 911.372c-255.454 0-463.266-207.863-463.266-463.363 0-255.519 207.814-463.38 463.266-463.38 255.437 0 463.25 207.863 463.25 463.38 0 255.502-207.812 463.363-463.25 463.363z" />
</font>
</defs>
</svg>
